<?xml version="1.0" standalone="no"?>
<!DOCTYPE svg PUBLIC "-//W3C//DTD SVG 20010904//EN"
 "http://www.w3.org/TR/2001/REC-SVG-20010904/DTD/svg10.dtd">
<svg version="1.0" xmlns="http://www.w3.org/2000/svg"
 width="1024.000000pt" height="1024.000000pt" viewBox="0 0 1024.000000 1024.000000"
 preserveAspectRatio="xMidYMid meet">

<g transform="translate(0.000000,1024.000000) scale(0.100000,-0.100000)"
fill="#000000" stroke="none">
<path d="M6677 7664 l-108 -65 -30 22 c-16 11 -33 19 -38 17 -13 -5 -101 -115
-101 -127 0 -6 -43 -36 -95 -66 -52 -31 -95 -59 -94 -63 0 -4 28 -31 62 -61
34 -30 86 -77 116 -105 l54 -50 91 97 c82 87 95 97 131 99 39 3 40 4 40 39 0
33 11 49 97 142 l97 104 -49 42 c-27 22 -52 41 -57 41 -4 -1 -57 -30 -116 -66z"/>
<path d="M6415 7599 c-53 -68 -52 -96 2 -34 59 68 76 95 60 95 -8 0 -35 -27
-62 -61z"/>
<path d="M5728 7605 c-85 -48 -26 -167 167 -339 130 -116 428 -339 628 -469
73 -49 86 -61 82 -80 -2 -12 -11 -68 -20 -124 l-15 -103 32 -30 c18 -16 36
-30 39 -30 3 0 41 45 85 99 63 79 83 99 99 95 14 -4 9 4 -15 23 -87 70 -181
156 -190 174 -13 23 -5 39 18 39 28 0 215 -134 244 -175 5 -6 8 -6 8 2 0 6 -4
14 -10 18 -5 3 -1 15 10 28 10 12 48 58 84 102 l66 80 -36 32 -36 32 -67 -25
c-36 -14 -93 -36 -127 -49 l-61 -24 -54 56 c-44 45 -225 214 -454 423 -80 73
-232 182 -300 215 -85 42 -139 51 -177 30z m157 -44 c18 -7 16 -9 -12 -15 -53
-12 -90 -67 -84 -126 1 -10 -5 -7 -19 9 -60 70 25 167 115 132z"/>
<path d="M4185 7172 c-360 -136 -644 -315 -909 -572 -363 -352 -600 -765 -720
-1250 -49 -199 -66 -324 -73 -536 -25 -756 270 -1477 815 -1995 653 -620 1560
-868 2441 -668 910 208 1647 875 1953 1769 40 116 93 334 115 471 26 163 26
614 0 779 -56 360 -167 655 -348 931 -62 93 -112 154 -203 245 -152 151 -244
208 -276 170 -18 -23 7 -87 148 -366 120 -239 174 -365 243 -568 223 -655 185
-1331 -108 -1916 -368 -736 -1053 -1228 -1865 -1341 -435 -60 -900 3 -1308
179 -568 246 -1031 701 -1284 1263 -266 592 -294 1262 -80 1875 53 152 191
427 279 558 110 163 205 277 347 416 248 242 519 420 823 539 66 26 122 49
124 51 11 10 -23 0 -114 -34z"/>
<path d="M6007 7133 c-2 -5 -19 -52 -36 -105 -18 -54 -36 -98 -40 -98 -10 0
-111 -126 -111 -138 0 -6 11 -17 25 -26 14 -9 25 -22 25 -29 0 -7 -16 -61 -35
-121 -19 -60 -35 -114 -35 -120 1 -10 80 -77 98 -84 5 -1 32 35 62 80 71 111
110 159 121 152 5 -3 19 -2 30 1 18 6 21 13 16 48 -5 37 0 48 64 143 38 57 69
107 69 112 0 5 -51 47 -112 93 -136 101 -136 101 -141 92z"/>
<path d="M5835 6881 c-25 -33 -41 -62 -37 -65 10 -6 29 14 81 82 23 30 28 42
17 42 -8 0 -35 -27 -61 -59z"/>
<path d="M6670 6794 c81 -83 280 -230 280 -206 0 4 -28 35 -62 68 -132 128
-328 252 -218 138z"/>
<path d="M4825 1828 c-276 -7 -543 -22 -592 -34 -69 -18 26 -43 199 -53 363
-22 1363 -16 1472 9 22 5 44 7 48 4 4 -3 11 1 14 10 7 19 74 16 92 -4 11 -13
12 -12 10 5 -5 29 -104 41 -438 54 -391 16 -479 17 -805 9z"/>
</g>
</svg>
